<svg width="43" height="43" viewBox="0 0 43 43" fill="none" xmlns="http://www.w3.org/2000/svg">
<path d="M26.875 2.6875H43V43H0V0.776855L26.875 27.6519V2.6875ZM2.6875 40.3125H35.7144L2.6875 7.28564V40.3125ZM36.8481 37.625L39.5356 40.3125H40.3125V5.375H29.5625V8.0625H34.9375V10.75H29.5625V13.4375H34.9375V16.125H29.5625V18.8125H37.625V21.5H29.5625V24.1875H34.9375V26.875H29.5625V29.5625H34.9375V32.25H31.4731L34.1606 34.9375H37.625V37.625H36.8481ZM8.0625 22.2769L20.7231 34.9375H8.0625V22.2769ZM10.75 28.7856V32.25H14.2144L10.75 28.7856Z" fill="white"/>
</svg>
