<svg width="57" height="57" viewBox="0 0 57 57" fill="none" xmlns="http://www.w3.org/2000/svg">
<path d="M28.5 41.0161C25.7957 41.0161 23.1752 41.5141 20.6387 42.51C18.1038 43.5075 15.7462 45.0338 13.566 47.089V47.2244C13.6879 47.3162 13.8098 47.3851 13.9318 47.431C14.0521 47.4769 14.189 47.4999 14.3426 47.4999H42.5671C42.7191 47.4999 42.849 47.4769 42.9566 47.431C43.0627 47.3851 43.1767 47.317 43.2986 47.2267V47.089C41.1785 45.0338 38.8653 43.5075 36.3589 42.51C33.854 41.5125 31.2344 41.0137 28.5 41.0137M11.875 45.4075C14.0125 43.3096 16.4967 41.6574 19.3277 40.4509C22.1587 39.2444 25.2162 38.6403 28.5 38.6387C31.7838 38.6372 34.842 39.2412 37.6746 40.4509C40.5072 41.6605 42.9907 43.3127 45.125 45.4075V15.7129C45.125 15.3471 44.973 15.0114 44.669 14.7059C44.365 14.4003 44.0293 14.2483 43.662 14.2499H13.338C12.9723 14.2499 12.6366 14.4019 12.331 14.7059C12.0254 15.0099 11.8734 15.3455 11.875 15.7129V45.4075ZM28.5 32.0624C26.5082 32.0624 24.8227 31.3728 23.4436 29.9937C22.0645 28.6147 21.375 26.9292 21.375 24.9374C21.375 22.9455 22.0645 21.2601 23.4436 19.881C24.8227 18.5019 26.5082 17.8124 28.5 17.8124C30.4918 17.8124 32.1773 18.5019 33.5564 19.881C34.9355 21.2601 35.625 22.9455 35.625 24.9374C35.625 26.9292 34.9355 28.6147 33.5564 29.9937C32.1773 31.3728 30.4918 32.0624 28.5 32.0624ZM28.5 29.6874C29.7936 29.6874 30.909 29.2195 31.8464 28.2837C32.7821 27.3464 33.25 26.2309 33.25 24.9374C33.25 23.6438 32.7821 22.5283 31.8464 21.591C30.909 20.6552 29.7936 20.1874 28.5 20.1874C27.2064 20.1874 26.091 20.6552 25.1536 21.591C24.2179 22.5283 23.75 23.6438 23.75 24.9374C23.75 26.2309 24.2179 27.3464 25.1536 28.2837C26.091 29.2195 27.2064 29.6874 28.5 29.6874ZM13.338 49.8749C12.2439 49.8749 11.3311 49.5091 10.5996 48.7776C9.86812 48.0461 9.50158 47.1333 9.5 46.0392V15.7105C9.5 14.618 9.86654 13.706 10.5996 12.9745C11.3327 12.243 12.2455 11.8764 13.338 11.8749H17.5394V6.57861H20.0972V11.8749H37.088V6.57861H39.463V11.8749H43.6644C44.7569 11.8749 45.6697 12.2414 46.4028 12.9745C47.1358 13.7076 47.5016 14.6204 47.5 15.7129V46.0392C47.5 47.1317 47.1343 48.0445 46.4028 48.7776C45.6712 49.5107 44.7577 49.8764 43.662 49.8749H13.338ZM28.5 47.4999H43.2962H13.5684H28.5Z" fill="white"/>
</svg>
