<svg width="78" height="78" viewBox="0 0 78 78" fill="none" xmlns="http://www.w3.org/2000/svg">
<path d="M59.9202 68.0451H18.0798C15.9249 68.0451 13.8582 67.1891 12.3345 65.6653C10.8108 64.1416 9.95475 62.075 9.95475 59.9201V18.0796C9.95475 15.9247 10.8108 13.8581 12.3345 12.3343C13.8582 10.8106 15.9249 9.95459 18.0798 9.95459H59.9202C62.0751 9.95459 64.1418 10.8106 65.6655 12.3343C67.1892 13.8581 68.0452 15.9247 68.0452 18.0796V59.9201C68.0452 62.075 67.1892 64.1416 65.6655 65.6653C64.1418 67.1891 62.0751 68.0451 59.9202 68.0451ZM18.0798 13.2046C16.7868 13.2046 15.5468 13.7182 14.6326 14.6324C13.7184 15.5467 13.2048 16.7867 13.2048 18.0796V59.9201C13.2048 61.213 13.7184 62.453 14.6326 63.3672C15.5468 64.2815 16.7868 64.7951 18.0798 64.7951H59.9202C61.2132 64.7951 62.4532 64.2815 63.3674 63.3672C64.2816 62.453 64.7952 61.213 64.7952 59.9201V18.0796C64.7952 16.7867 64.2816 15.5467 63.3674 14.6324C62.4532 13.7182 61.2132 13.2046 59.9202 13.2046H18.0798Z" fill="#10ADA3"/>
<path d="M39 53.9305C36.0469 53.9273 33.1611 53.0486 30.7074 51.4056C28.2536 49.7625 26.342 47.4289 25.2143 44.6996C24.0866 41.9704 23.7934 38.968 24.3717 36.0722C24.95 33.1763 26.3739 30.5169 28.4634 28.4301C30.5529 26.3433 33.2142 24.9229 36.1108 24.3484C39.0074 23.7738 42.0094 24.071 44.7371 25.2022C47.4649 26.3335 49.7961 28.2481 51.4359 30.704C53.0757 33.16 53.9506 36.0469 53.95 39C53.9448 42.9616 52.3675 46.7592 49.5644 49.5586C46.7612 52.3581 42.9616 53.9305 39 53.9305ZM39 27.3C36.6906 27.3032 34.4339 27.9908 32.515 29.2758C30.5961 30.5609 29.1011 32.3858 28.2188 34.5201C27.3365 36.6543 27.1065 39.0022 27.5578 41.2671C28.0091 43.532 29.1216 45.6124 30.7546 47.2454C32.3876 48.8784 34.468 49.9908 36.7329 50.4422C38.9978 50.8935 41.3457 50.6635 43.4799 49.7812C45.6142 48.8989 47.4391 47.4039 48.7242 45.485C50.0092 43.5661 50.6968 41.3094 50.7 39C50.7 35.897 49.4673 32.921 47.2731 30.7268C45.079 28.5327 42.103 27.3 39 27.3Z" fill="#10ADA3"/>
<path d="M55.9 25.6911C57.8295 25.6911 59.3937 24.1269 59.3937 22.1974C59.3937 20.2678 57.8295 18.7036 55.9 18.7036C53.9705 18.7036 52.4062 20.2678 52.4062 22.1974C52.4062 24.1269 53.9705 25.6911 55.9 25.6911Z" fill="#10ADA3"/>
</svg>
