<svg width="222" height="222" viewBox="0 0 222 222" fill="none" xmlns="http://www.w3.org/2000/svg">
<rect width="222" height="222" rx="10" fill="#01306D"/>
<path d="M128.875 46.6875H184V184.5H37V40.1558L128.875 132.031V46.6875ZM46.1875 175.312H159.093L46.1875 62.4067V175.312ZM162.969 166.125L172.157 175.312H174.812V55.875H138.062V65.0625H156.438V74.25H138.062V83.4375H156.438V92.625H138.062V101.812H165.625V111H138.062V120.188H156.438V129.375H138.062V138.562H156.438V147.75H144.594L153.782 156.938H165.625V166.125H162.969ZM64.5625 113.656L107.844 156.938H64.5625V113.656ZM73.75 135.907V147.75H85.5933L73.75 135.907Z" fill="white"/>
</svg>
