<svg width="81" height="81" viewBox="0 0 81 81" fill="none" xmlns="http://www.w3.org/2000/svg">
<path d="M15.2294 64.2547C13.7743 64.2547 12.5603 63.7321 11.5875 62.6869C10.6146 61.6417 10.1271 60.3363 10.125 58.7708V22.2291C10.125 20.6658 10.6125 19.3615 11.5875 18.3163C12.5624 17.2711 13.7754 16.7474 15.2262 16.7451H61.8795C63.3325 16.7451 64.5454 17.2689 65.5183 18.3163C66.4912 19.3638 66.9787 20.6681 66.9808 22.2291V58.7742C66.9808 60.3352 66.4933 61.6394 65.5183 62.6869C64.5433 63.7344 63.3304 64.257 61.8795 64.2547H15.2294ZM63.8221 23.1419L39.968 39.9196C39.7447 40.0441 39.5194 40.1493 39.292 40.2352C39.0625 40.3189 38.8161 40.3608 38.5529 40.3608C38.2897 40.3608 38.0433 40.3189 37.8138 40.2352C37.5842 40.1515 37.3589 40.0463 37.1378 39.9196L13.2837 23.1386V58.7708C13.2837 59.3816 13.4658 59.8827 13.8301 60.2741C14.1944 60.6655 14.6608 60.8612 15.2294 60.8612H61.8795C62.446 60.8612 62.9114 60.6655 63.2757 60.2741C63.64 59.8827 63.8221 59.3816 63.8221 58.7708V23.1419ZM38.5529 37.1064L62.8492 20.1387H14.2565L38.5529 37.1064ZM13.2837 23.858V21.1058V21.2212V20.1387V21.2246V21.0481V23.858Z" fill="#10ADA3"/>
</svg>
