<svg width="53" height="53" viewBox="0 0 53 53" fill="none" xmlns="http://www.w3.org/2000/svg">
<path fill-rule="evenodd" clip-rule="evenodd" d="M18.7709 26.4998C23.0407 26.4998 26.5 23.0405 26.5 18.7707C26.5 14.5009 23.0407 11.0415 18.7709 11.0415C14.501 11.0415 11.0417 14.5009 11.0417 18.7707C11.0417 23.0405 14.501 26.4998 18.7709 26.4998ZM24.2917 18.7707C24.2917 21.8215 21.8217 24.2915 18.7709 24.2915C15.72 24.2915 13.25 21.8215 13.25 18.7707C13.25 15.7199 15.72 13.2498 18.7709 13.2498C21.8217 13.2498 24.2917 15.7199 24.2917 18.7707ZM4.41669 41.9582V35.7748C4.41669 31.0755 13.9799 28.7082 18.7709 28.7082C21.9575 28.7082 27.2564 29.756 30.4474 31.8407C32.722 31.2257 35.2163 30.9165 36.9896 30.9165C39.0411 30.9165 41.7938 31.3295 44.0673 32.1642C45.2002 32.5816 46.2856 33.1293 47.106 33.8381C47.933 34.5525 48.5834 35.5187 48.5834 36.731V41.9582H4.41669ZM6.62502 35.7748C6.62502 35.4248 6.78623 34.9456 7.47081 34.3229C8.16975 33.6869 9.24521 33.0707 10.6066 32.5341C13.335 31.4575 16.6475 30.9165 18.7709 30.9165C20.8942 30.9165 24.2078 31.4575 26.934 32.5341C28.2965 33.0707 29.372 33.6869 30.0698 34.3229C30.7555 34.9456 30.9167 35.4248 30.9167 35.7748V39.7498H6.62502V35.7748ZM32.4106 33.6438C34.0812 33.2982 35.7563 33.1248 36.9896 33.1248C38.8082 33.1248 41.2992 33.5003 43.3054 34.2378C44.3091 34.6066 45.1207 35.0417 45.6628 35.5098C46.1984 35.9725 46.375 36.3788 46.375 36.7321V39.7498H33.125V35.7748C33.125 35.0019 32.8655 34.2897 32.4106 33.6438ZM43.0625 22.6353C43.0625 25.9908 40.3452 28.7082 36.9896 28.7082C35.379 28.7082 33.8343 28.0683 32.6954 26.9295C31.5565 25.7906 30.9167 24.2459 30.9167 22.6353C30.9167 19.2797 33.634 16.5623 36.9896 16.5623C40.3452 16.5623 43.0625 19.2797 43.0625 22.6353ZM36.9896 26.4998C39.1251 26.4998 40.8542 24.7707 40.8542 22.6353C40.8542 20.4998 39.1251 18.7707 36.9896 18.7707C35.9647 18.7707 34.9817 19.1778 34.2569 19.9026C33.5322 20.6273 33.125 21.6103 33.125 22.6353C33.125 24.7707 34.8541 26.4998 36.9896 26.4998Z" fill="white"/>
</svg>
